<svg xmlns="http://www.w3.org/2000/svg" viewBox="0 0 24 24" width="24" height="24" fill="currentColor">
  <path d="M12 .5C5.648.5.5 5.648.5 12A11.5 11.5 0 0 0 8.36 22.06c.575.106.785-.25.785-.555 0-.274-.01-1-.016-1.963-3.18.69-3.85-1.532-3.85-1.532-.52-1.32-1.27-1.67-1.27-1.67-1.04-.711.08-.697.08-.697 1.15.081 1.756 1.182 1.756 1.182 1.022 1.75 2.68 1.245 3.334.952.104-.74.4-1.246.727-1.533-2.54-.289-5.21-1.27-5.21-5.654 0-1.249.446-2.27 1.177-3.07-.118-.288-.51-1.45.112-3.022 0 0 .96-.307 3.146 1.173A10.95 10.95 0 0 1 12 6.034c.974.004 1.955.132 2.872.389 2.184-1.48 3.143-1.173 3.143-1.173.624 1.572.232 2.734.114 3.022.733.8 1.176 1.821 1.176 3.07 0 4.395-2.675 5.362-5.222 5.645.412.355.779 1.055.779 2.126 0 1.536-.014 2.775-.014 3.153 0 .308.207.667.79.554A11.503 11.503 0 0 0 23.5 12C23.5 5.648 18.352.5 12 .5Z"/>
</svg>
