<svg width="256" height="256" viewBox="0 0 256 256" fill="none" xmlns="http://www.w3.org/2000/svg">
<path d="M230.721 172.7C230.183 170.673 229.313 168.75 228.146 167.008C228.396 166.091 228.587 165.159 228.714 164.217C229.543 158.241 227.471 152.77 223.567 148.537C221.452 146.225 219.185 144.698 216.784 143.761C218.36 137.018 219.157 130.117 219.161 123.193C219.161 120.03 218.982 116.932 218.682 113.88C218.526 112.356 218.337 110.836 218.115 109.32C217.428 104.847 216.408 100.431 215.064 96.11C214.183 93.2707 213.164 90.476 212.01 87.736C210.281 83.6782 208.262 79.75 205.969 75.982C204.465 73.475 202.827 71.0508 201.062 68.72C200.197 67.543 199.296 66.3938 198.358 65.274C195.58 61.898 192.561 58.7277 189.325 55.788C188.25 54.7997 187.145 53.8453 186.01 52.926C184.893 51.9943 183.751 51.0927 182.586 50.222C180.241 48.4766 177.818 46.8392 175.324 45.315C161.543 36.945 145.382 32.145 128.109 32.145C77.817 32.145 37.057 72.907 37.057 123.196C37.055 130.208 37.867 137.196 39.477 144.02C37.317 144.958 35.247 146.42 33.327 148.535C29.424 152.766 27.351 158.217 28.18 164.193C28.306 165.142 28.495 166.082 28.747 167.006C27.5811 168.749 26.7117 170.673 26.174 172.7C24.974 177.261 25.369 181.374 26.894 184.978C25.236 189.688 25.65 194.704 27.809 199.065C29.379 202.25 31.626 204.714 34.396 206.916C37.689 209.534 41.811 211.758 46.783 213.892C52.715 216.422 59.956 218.799 63.249 219.671C71.755 221.873 79.911 223.269 88.177 223.337C99.954 223.446 110.096 220.677 117.357 213.59C120.924 214.027 124.515 214.246 128.109 214.244C131.906 214.236 135.699 213.997 139.467 213.529C146.711 220.661 156.892 223.455 168.712 223.343C176.977 223.277 185.133 221.881 193.617 219.676C196.932 218.804 204.17 216.427 210.105 213.897C215.077 211.76 219.199 209.536 222.514 206.922C225.263 204.719 227.508 202.256 229.079 199.071C231.26 194.709 231.652 189.693 230.017 184.983C231.527 181.379 231.92 177.257 230.721 172.7ZM222.281 184.673C223.952 187.844 224.059 191.427 222.585 194.764C220.349 199.821 214.795 203.805 204.008 208.082C197.3 210.742 191.158 212.443 191.104 212.458C182.232 214.759 174.208 215.928 167.262 215.928C155.76 215.928 147.201 212.754 141.773 206.486C132.594 208.05 123.222 208.103 114.026 206.644C108.591 212.808 100.081 215.928 88.676 215.928C81.729 215.928 73.706 214.759 64.833 212.458C64.779 212.443 58.639 210.742 51.929 208.082C41.143 203.805 35.587 199.824 33.352 194.764C31.878 191.427 31.985 187.844 33.656 184.673C33.81 184.378 33.976 184.091 34.153 183.813C33.1516 182.309 32.4799 180.61 32.182 178.827C31.8842 177.045 31.967 175.22 32.425 173.472C33.089 170.949 34.46 168.851 36.322 167.344C35.425 165.87 34.8365 164.23 34.592 162.522C34.056 158.808 35.289 155.1 38.062 152.076C40.222 149.723 43.275 148.428 46.655 148.428H46.745C44.1965 140.259 42.9044 131.75 42.913 123.193C42.913 76.522 80.749 38.683 127.427 38.683C174.104 38.683 211.94 76.518 211.94 123.193C211.947 131.773 210.646 140.304 208.081 148.492C208.489 148.452 208.889 148.432 209.282 148.431C212.662 148.431 215.716 149.726 217.874 152.079C220.647 155.1 221.881 158.811 221.344 162.525C221.1 164.233 220.511 165.873 219.615 167.347C221.477 168.854 222.849 170.952 223.512 173.475C223.97 175.223 224.053 177.048 223.755 178.831C223.458 180.613 222.786 182.312 221.784 183.816C221.961 184.091 222.129 184.378 222.281 184.673Z" fill="white"/>
<path d="M221.784 183.816C222.786 182.312 223.458 180.613 223.756 178.831C224.053 177.048 223.97 175.223 223.512 173.475C222.848 170.952 221.476 168.854 219.615 167.347C220.512 165.873 221.1 164.233 221.344 162.525C221.881 158.811 220.648 155.103 217.874 152.079C215.716 149.726 212.662 148.431 209.282 148.431C208.889 148.431 208.489 148.452 208.081 148.492C210.643 140.304 211.942 131.774 211.933 123.195C211.933 76.5231 174.097 38.6851 127.424 38.6851C80.75 38.6851 42.9099 76.5191 42.9099 123.195C42.9015 131.752 44.1936 140.261 46.742 148.43H46.6519C43.2719 148.43 40.219 149.724 38.06 152.077C35.287 155.098 34.0529 158.81 34.5899 162.523C34.8346 164.231 35.4231 165.872 36.3199 167.346C34.4579 168.852 33.086 170.95 32.422 173.473C31.9642 175.222 31.8817 177.047 32.1799 178.83C32.4781 180.612 33.1501 182.312 34.1519 183.816C33.9739 184.094 33.8099 184.381 33.6549 184.676C31.9849 187.847 31.877 191.43 33.352 194.767C35.588 199.824 41.1419 203.808 51.9289 208.085C58.6359 210.745 64.779 212.446 64.833 212.461C73.705 214.762 81.729 215.931 88.675 215.931C100.081 215.931 108.591 212.811 114.026 206.647C123.222 208.106 132.594 208.052 141.773 206.489C147.201 212.757 155.76 215.931 167.262 215.931C174.208 215.931 182.232 214.762 191.103 212.461C191.158 212.446 197.298 210.745 204.008 208.085C214.795 203.808 220.35 199.824 222.585 194.767C224.059 191.43 223.952 187.847 222.281 184.676C222.129 184.379 221.961 184.091 221.784 183.816ZM110.137 196.997C109.669 197.815 109.168 198.614 108.635 199.391C107.23 201.448 105.382 203.02 103.237 204.188C99.1369 206.424 93.947 207.205 88.675 207.205C80.346 207.205 71.808 205.256 67.023 204.015C66.787 203.954 37.689 195.735 41.373 188.739C41.993 187.562 43.0129 187.092 44.2979 187.092C49.4849 187.092 58.9299 194.816 62.9889 194.816C63.8959 194.816 64.5359 194.43 64.7969 193.488C66.5269 187.284 38.5039 184.676 40.8639 175.692C41.2799 174.102 42.41 173.456 43.998 173.456C50.856 173.455 66.248 185.516 69.467 185.516C69.714 185.516 69.8909 185.443 69.9869 185.291C70.0009 185.268 70.015 185.246 70.028 185.222C71.539 182.727 70.6719 180.913 60.3209 174.573L59.3269 173.968C47.9359 167.074 39.9409 162.925 44.4879 157.975C45.0109 157.404 45.7529 157.151 46.6539 157.151C47.7219 157.151 49.0149 157.508 50.4389 158.108C56.4549 160.645 64.793 167.564 68.276 170.581C68.8239 171.057 69.3683 171.538 69.9089 172.022C69.9089 172.022 74.319 176.608 76.985 176.608C77.599 176.608 78.1199 176.366 78.4729 175.768C80.364 172.58 60.9099 157.838 59.8129 151.755C59.0689 147.634 60.3349 145.546 62.6749 145.546C63.7879 145.546 65.1459 146.02 66.6449 146.971C71.2949 149.922 80.2729 165.35 83.5599 171.352C84.6619 173.363 86.5429 174.213 88.2379 174.213C91.6009 174.213 94.2299 170.87 88.5459 166.622C80.0029 160.23 83.001 149.782 87.078 149.139C87.252 149.111 87.4279 149.097 87.6029 149.097C91.3109 149.097 92.9459 155.486 92.9459 155.486C92.9459 155.486 97.7399 167.524 105.975 175.753C113.447 183.222 114.491 189.351 110.137 196.997ZM136.766 198.407L136.339 198.458L135.611 198.541C135.228 198.581 134.844 198.619 134.459 198.654L134.084 198.688L133.741 198.717L133.255 198.756L132.718 198.795L132.182 198.83L132.063 198.838C131.923 198.846 131.783 198.855 131.641 198.862L131.462 198.872C131.296 198.881 131.13 198.889 130.962 198.896L130.381 198.921L129.854 198.939L129.502 198.949H129.323C129.213 198.949 129.104 198.955 128.994 198.956H128.82C128.71 198.956 128.601 198.956 128.491 198.961L128.043 198.967H127.418C126.927 198.967 126.437 198.962 125.949 198.952L125.553 198.943C125.44 198.943 125.327 198.938 125.216 198.934L124.796 198.922L124.275 198.902L123.805 198.881L123.684 198.876L123.237 198.853C123.112 198.846 122.989 198.84 122.865 198.831L122.576 198.814C122.213 198.791 121.85 198.766 121.487 198.738L121.107 198.707C120.947 198.695 120.787 198.68 120.628 198.666C120.441 198.65 120.254 198.632 120.067 198.614C119.754 198.585 119.441 198.553 119.128 198.519H119.113C123.683 188.324 121.372 178.802 112.137 169.575C106.08 163.526 102.051 154.594 101.215 152.633C99.5229 146.828 95.045 140.375 87.608 140.375C86.979 140.375 86.351 140.425 85.73 140.523C82.472 141.036 79.624 142.911 77.592 145.733C75.396 143.002 73.262 140.831 71.332 139.605C68.422 137.76 65.5179 136.824 62.6889 136.824C59.1579 136.824 56.0019 138.274 53.8019 140.904L53.7459 140.971C53.7039 140.798 53.6639 140.625 53.6229 140.451L53.6179 140.428C53.1992 138.638 52.8477 136.833 52.5639 135.016C52.5639 135.004 52.5639 134.992 52.5579 134.98C52.5359 134.843 52.5159 134.705 52.4949 134.568C52.4334 134.162 52.3757 133.755 52.3219 133.348C52.2979 133.163 52.2719 132.978 52.2489 132.793L52.1809 132.238C52.1589 132.053 52.1409 131.868 52.1209 131.683L52.1169 131.655C52.0669 131.168 52.0209 130.68 51.9809 130.191V130.168C51.9649 129.994 51.9509 129.818 51.9379 129.644L51.9309 129.57C51.9229 129.476 51.9159 129.382 51.9099 129.289L51.9029 129.193C51.8939 129.045 51.8829 128.897 51.8729 128.749L51.8409 128.255L51.8369 128.195C51.8319 128.065 51.8239 127.935 51.8169 127.805L51.7849 127.164L51.7629 126.616L51.7539 126.323C51.7499 126.197 51.7469 126.072 51.7449 125.947V125.864L51.7379 125.588V124.945L51.7329 124.603V124.487L51.7289 124.087V123.587C51.7289 76.911 89.5689 39.077 136.242 39.077C182.916 39.077 220.751 76.915 220.751 123.587V124.076C220.751 124.203 220.751 124.329 220.746 124.455V124.589L220.741 124.879V124.893C220.741 125.004 220.737 125.115 220.732 125.226V125.316C220.726 125.451 220.72 125.587 220.712 125.724V125.749L220.693 126.123L220.684 126.298L220.676 126.43C220.664 126.65 220.651 126.87 220.637 127.09C220.631 127.161 220.626 127.232 220.621 127.304L220.609 127.499L220.597 127.642C220.573 127.995 220.547 128.349 220.517 128.703L220.506 128.83C220.492 129.002 220.477 129.174 220.461 129.346L220.45 129.471C220.443 129.558 220.434 129.645 220.426 129.732L220.383 130.173C220.383 130.182 220.383 130.191 220.377 130.2L220.361 130.352L220.343 130.53C220.331 130.645 220.317 130.76 220.304 130.874L220.272 131.147L220.247 131.364L220.244 131.398C220.209 131.692 220.172 131.985 220.132 132.278L220.071 132.718L220.056 132.827C220.04 132.944 220.023 133.061 220.006 133.178L219.989 133.297L219.955 133.529L219.93 133.698C219.872 134.062 219.812 134.425 219.748 134.788C219.686 135.153 219.621 135.517 219.552 135.88L219.495 136.182C219.477 136.291 219.459 136.4 219.438 136.509C219.393 136.748 219.348 136.987 219.299 137.225L219.209 137.677L219.182 137.811C219.108 138.18 219.033 138.549 218.954 138.916L218.931 139.022C218.889 139.219 218.846 139.417 218.8 139.614L218.793 139.651C218.754 139.824 218.714 139.997 218.672 140.17C218.632 140.341 218.591 140.511 218.549 140.682V140.695L218.514 140.827L218.504 140.864C216.3 138.259 213.16 136.831 209.637 136.831C206.808 136.831 203.904 137.767 200.994 139.612C199.064 140.838 196.93 143.009 194.734 145.741C192.701 142.919 189.851 141.044 186.596 140.531C185.976 140.433 185.347 140.383 184.718 140.383C177.28 140.383 172.803 146.835 171.111 152.641C170.274 154.602 166.245 163.534 160.189 169.583C150.996 178.81 148.693 188.317 153.251 198.493L153.452 198.471C153.64 198.452 153.829 198.431 154.018 198.41L154.139 198.396C154.295 198.377 154.451 198.359 154.608 198.338L154.683 198.329C154.873 198.306 155.062 198.281 155.252 198.257L155.489 198.225L155.8 198.183L156.111 198.138C156.262 198.117 156.413 198.094 156.564 198.071L156.629 198.062L156.915 198.018L157.114 197.985L157.269 197.96L157.414 197.936L157.526 197.917L157.849 197.86C157.953 197.842 158.057 197.823 158.161 197.804L158.273 197.783L158.673 197.708H158.687C159.693 197.514 160.689 197.277 161.67 196.999C157.317 189.349 158.361 183.221 165.833 175.751C174.067 167.522 178.861 155.484 178.861 155.484C178.861 155.484 180.496 149.095 184.204 149.095C184.379 149.095 184.555 149.109 184.729 149.137C188.806 149.78 191.799 160.228 183.261 166.62C177.577 170.868 180.205 174.211 183.569 174.211C185.264 174.211 187.145 173.362 188.247 171.35C191.534 165.348 200.512 149.92 205.162 146.969C206.662 146.018 208.019 145.544 209.132 145.544C211.472 145.544 212.739 147.632 211.995 151.753C210.898 157.836 191.443 172.578 193.335 175.766C193.689 176.364 194.208 176.606 194.822 176.606C197.488 176.606 201.899 172.02 201.899 172.02C202.439 171.536 202.984 171.055 203.532 170.579C207.015 167.562 215.353 160.643 221.369 158.106C222.793 157.506 224.086 157.149 225.154 157.149C226.055 157.149 226.797 157.402 227.32 157.973C231.865 162.924 223.872 167.073 212.48 173.967L211.487 174.572C201.136 180.912 200.267 182.726 201.779 185.221C201.793 185.244 201.806 185.266 201.82 185.289C201.918 185.441 202.094 185.514 202.34 185.514C205.559 185.514 220.951 173.453 227.809 173.454C229.398 173.454 230.528 174.099 230.944 175.69C233.304 184.674 205.281 187.282 207.011 193.486C207.274 194.428 207.912 194.814 208.819 194.814C212.879 194.814 222.324 187.09 227.511 187.09C228.797 187.09 229.815 187.561 230.436 188.737C234.119 195.733 205.025 203.952 204.785 204.013C204.731 204.028 198.589 205.729 191.881 208.389C181.094 212.666 175.54 216.648 173.304 221.706C171.831 225.043 171.938 228.626 173.608 231.797C173.761 232.092 173.929 232.379 174.106 232.657C173.104 234.161 172.432 235.86 172.135 237.642C171.837 239.425 171.92 241.25 172.378 242.998C173.041 245.521 174.413 247.619 176.275 249.126C175.379 250.6 174.79 252.24 174.546 253.948C174.009 257.662 175.243 261.37 178.016 264.394C180.175 266.747 183.229 268.042 186.609 268.042C187.002 268.042 187.402 268.021 187.81 267.981C185.248 276.169 183.949 284.699 183.958 293.278C183.958 339.95 221.794 377.788 268.467 377.788C315.141 377.788 352.981 339.954 352.981 293.278C352.989 284.721 351.697 276.212 349.149 268.043H349.239C352.619 268.043 355.672 266.749 357.831 264.396C360.604 261.375 361.838 257.663 361.301 253.95C361.056 252.242 360.468 250.601 359.571 249.127C361.433 247.621 362.805 245.523 363.469 243C363.926 241.251 364.009 239.426 363.711 237.643C363.413 235.861 362.741 234.161 361.739 232.657C361.917 232.379 362.081 232.092 362.236 231.797C363.906 228.626 364.014 225.043 362.539 221.706C360.303 216.649 354.749 212.665 343.962 208.388C337.255 205.728 331.112 204.027 331.058 204.012C322.185 201.711 314.161 200.542 307.216 200.542C295.811 200.542 287.3 203.662 281.865 209.826C272.669 208.367 263.298 208.421 254.118 209.984C248.69 203.716 240.131 200.542 228.629 200.542C221.683 200.542 213.659 201.711 204.787 204.012C204.733 204.027 198.59 205.728 191.883 208.388C181.096 212.665 175.541 216.649 173.306 221.706C171.831 225.043 171.939 228.626 173.609 231.797C173.761 232.094 173.929 232.381 174.106 232.656C173.105 234.16 172.433 235.859 172.135 237.642C171.838 239.424 171.921 241.249 172.379 242.997C173.043 245.52 174.414 247.618 176.276 249.125C175.379 250.599 174.791 252.239 174.547 253.947C174.01 257.661 175.243 261.369 178.017 264.393C180.175 266.746 183.229 268.041 186.609 268.041C187.002 268.041 187.402 268.02 187.81 267.98C185.247 276.169 183.948 284.699 183.957 293.279C183.957 339.95 221.793 377.788 268.466 377.788C315.14 377.788 352.98 339.954 352.98 293.279C352.988 284.722 351.696 276.212 349.148 268.044H349.238C352.618 268.044 355.671 266.749 357.83 264.396C360.603 261.375 361.837 257.663 361.3 253.95C361.055 252.242 360.467 250.602 359.57 249.128C361.432 247.621 362.804 245.523 363.468 243C363.925 241.252 364.008 239.427 363.71 237.644C363.412 235.862 362.74 234.162 361.738 232.658C361.916 232.38 362.08 232.093 362.235 231.798C363.905 228.627 364.012 225.044 362.538 221.707C360.302 216.65 354.748 212.666 343.961 208.389C337.254 205.729 331.111 204.028 331.057 204.013C322.184 201.712 314.16 200.543 307.215 200.543C295.81 200.543 287.299 203.663 281.864 209.827C272.668 208.368 263.297 208.422 254.117 209.985C248.689 203.717 240.13 200.543 228.628 200.543C221.682 200.543 213.658 201.712 204.786 204.013C204.732 204.028 198.589 205.729 191.882 208.389C181.095 212.666 175.54 216.65 173.305 221.707C171.83 225.044 171.938 228.627 173.608 231.798C173.76 232.095 173.928 232.382 174.105 232.657Z" fill="#FFD21E"/>
<path fill-rule="evenodd" clip-rule="evenodd" d="M152.047 102.567C153.229 102.985 154.108 104.257 154.944 105.468C156.074 107.104 157.126 108.627 158.74 107.769C160.644 106.756 162.205 105.202 163.225 103.302C164.246 101.402 164.681 99.2427 164.475 97.096C164.321 95.4908 163.813 93.9398 162.987 92.5548C162.161 91.1697 161.038 89.985 159.7 89.0862C158.361 88.1874 156.839 87.5968 155.245 87.3569C153.65 87.117 152.022 87.2339 150.478 87.699C148.934 88.1639 147.513 88.9653 146.316 90.0455C145.119 91.1257 144.176 92.4578 143.556 93.946C142.936 95.4342 142.653 97.0415 142.728 98.652C142.804 100.263 143.235 101.836 143.992 103.26C144.74 104.667 146.4 104.003 148.152 103.302C149.525 102.753 150.956 102.181 152.047 102.567ZM100.672 102.567C99.49 102.985 98.611 104.258 97.775 105.468C96.645 107.105 95.592 108.627 93.979 107.769C91.5845 106.501 89.7482 104.386 88.8278 101.838C87.9075 99.2895 87.9692 96.4896 89.0008 93.9841C90.0324 91.4786 91.9601 89.4471 94.408 88.2855C96.856 87.1239 99.6488 86.9156 102.242 87.701C104.307 88.3228 106.141 89.5427 107.513 91.2065C108.885 92.8704 109.732 94.9035 109.949 97.049C110.165 99.1945 109.74 101.356 108.728 103.26C107.979 104.667 106.319 104.003 104.567 103.303C103.193 102.753 101.764 102.181 100.672 102.567ZM144.099 149.318C152.242 142.903 155.233 132.429 155.233 125.977C155.233 120.877 151.802 122.482 146.309 125.202L145.999 125.355C140.957 127.852 134.245 131.177 126.877 131.177C119.508 131.177 112.796 127.852 107.755 125.354C102.084 122.545 98.527 120.783 98.527 125.978C98.527 132.634 101.709 143.563 110.443 149.912C111.596 147.573 113.219 145.497 115.211 143.813C117.202 142.129 119.52 140.874 122.018 140.126C122.89 139.866 123.788 141.367 124.707 142.904C125.594 144.386 126.501 145.902 127.423 145.902C128.406 145.902 129.371 144.408 130.314 142.95C131.299 141.425 132.26 139.94 133.189 140.237C137.864 141.738 141.775 144.993 144.099 149.318Z" fill="#32343D"/>
<path d="M144.097 149.317C139.856 152.659 134.219 154.9 126.878 154.9C119.981 154.9 114.587 152.922 110.443 149.911C111.596 147.572 113.219 145.495 115.211 143.812C117.202 142.128 119.52 140.873 122.018 140.125C123.73 139.614 125.545 145.901 127.423 145.901C129.433 145.901 131.37 139.655 133.189 140.236C137.863 141.738 141.773 144.993 144.097 149.317Z" fill="#FF323D"/>
<path fill-rule="evenodd" clip-rule="evenodd" d="M81.2 111.64C80.2312 112.288 79.1173 112.687 77.9572 112.801C76.7971 112.916 75.6267 112.742 74.55 112.295C73.6893 111.94 72.9072 111.418 72.2488 110.759C71.5903 110.101 71.0684 109.319 70.713 108.458C70.267 107.381 70.0935 106.211 70.2082 105.051C70.3228 103.891 70.7219 102.777 71.37 101.808C72.1488 100.642 73.2558 99.7333 74.5512 99.1967C75.8466 98.6601 77.272 98.5197 78.6471 98.7935C80.0223 99.0672 81.2853 99.7427 82.2764 100.734C83.2675 101.726 83.9422 102.99 84.215 104.365C84.4883 105.74 84.3477 107.165 83.8113 108.46C83.2748 109.755 82.3654 110.861 81.2 111.64ZM182.613 111.64C181.644 112.288 180.53 112.687 179.37 112.801C178.209 112.916 177.039 112.742 175.962 112.295C175.101 111.939 174.319 111.418 173.661 110.759C173.003 110.101 172.481 109.319 172.125 108.458C171.68 107.381 171.507 106.211 171.621 105.051C171.736 103.891 172.135 102.777 172.782 101.808C173.364 100.936 174.133 100.205 175.032 99.6658C175.931 99.1269 176.938 98.7942 177.981 98.6917C179.025 98.5891 180.078 98.7193 181.064 99.0728C182.051 99.4264 182.947 99.9944 183.688 100.736C184.68 101.727 185.355 102.99 185.628 104.365C185.902 105.74 185.761 107.165 185.224 108.46C184.687 109.755 183.779 110.861 182.613 111.64Z" fill="#FFAD03"/>
</svg>
